<svg width="800" height="800" viewBox="0 0 800 800" fill="none" xmlns="http://www.w3.org/2000/svg">
<g clip-path="url(#clip0_735_6)">
<path d="M490.891 309.108C465.164 283.382 465.164 241.668 490.891 215.941C516.618 190.214 558.331 190.214 584.058 215.941C609.785 241.668 609.786 283.381 584.058 309.108C558.331 334.835 516.617 334.835 490.891 309.108Z" stroke="black" stroke-width="60" stroke-linecap="round" stroke-linejoin="round"/>
<path d="M56.1115 495.443L304.557 743.888C338.861 778.192 394.476 778.193 428.78 743.888L744.666 428.003C761.139 411.53 770.393 389.188 770.393 365.892L770.393 117.445C770.394 68.9348 731.065 29.6058 682.555 29.6074L434.109 29.6074C410.812 29.6064 388.47 38.8613 371.997 55.3342L56.1115 371.22C21.8073 405.524 21.8073 461.138 56.1115 495.443Z" stroke="black" stroke-width="60" stroke-linecap="round" stroke-linejoin="round"/>
</g>
<defs>
<clipPath id="clip0_735_6">
<rect width="800" height="800" fill="white"/>
</clipPath>
</defs>
</svg>
